# xmcd CD database file
#
# Track frame offsets:
#	150
#	25828
#	50110
#	86888
#	122925
#	162613
#	192313
#	201898
#	242488
#
# Disc length: 3515 seconds
#
# Revision: 0
# Processed by: cddbd v1.5.2PL0 Copyright (c) Steve Scherf et al.
# Submitted via: CDex 1.51
#
DISCID=820db909
DTITLE=Temple Bhajan Band - Bhakti Seva Final Mix 
DYEAR=2007
DGENRE=New Age
TTITLE0=Asato Ma Sat Famaya
TTITLE1=He Govinda
TTITLE2=Jaya Jagannath
TTITLE3=Om Purnam Adah
TTITLE4=Hari Haraya
TTITLE5=Jaya Hanuman
TTITLE6=Harer Namah
TTITLE7=Hare Krishna
TTITLE8=Bhakti Seva
EXTD=YEAR: 2007
EXTT0=
EXTT1=
EXTT2=
EXTT3=
EXTT4=
EXTT5=
EXTT6=
EXTT7=
EXTT8=
PLAYORDER=
